<mxfile host="Electron" agent="Mozilla/5.0 (Macintosh; Intel Mac OS X 10_15_7) AppleWebKit/537.36 (KHTML, like Gecko) draw.io/24.7.17 Chrome/128.0.6613.36 Electron/32.0.1 Safari/537.36" version="24.7.17">
  <diagram name="Vector Split" id="0">
    <mxGraphModel dx="1434" dy="779" grid="1" gridSize="10" guides="1" tooltips="1" connect="1" arrows="1" fold="1" page="1" pageScale="1" pageWidth="827" pageHeight="1169" math="1" shadow="0">
      <root>
        <mxCell id="0" />
        <mxCell id="1" parent="0" />
        <mxCell id="5mW8UUuW8cWVtmHEqI13-12" value="" style="rounded=0;whiteSpace=wrap;html=1;" parent="1" vertex="1">
          <mxGeometry x="40" y="40" width="120" height="20" as="geometry" />
        </mxCell>
        <mxCell id="5mW8UUuW8cWVtmHEqI13-13" value="" style="rounded=0;whiteSpace=wrap;html=1;" parent="1" vertex="1">
          <mxGeometry x="160" y="40" width="120" height="20" as="geometry" />
        </mxCell>
        <mxCell id="5mW8UUuW8cWVtmHEqI13-14" value="" style="rounded=0;whiteSpace=wrap;html=1;" parent="1" vertex="1">
          <mxGeometry x="280" y="40" width="120" height="20" as="geometry" />
        </mxCell>
        <mxCell id="5mW8UUuW8cWVtmHEqI13-15" value="$$000\cdots 000$$" style="rounded=0;whiteSpace=wrap;html=1;fillColor=#dae8fc;strokeColor=#6c8ebf;" parent="1" vertex="1">
          <mxGeometry x="400" y="40" width="120" height="20" as="geometry" />
        </mxCell>
        <mxCell id="5mW8UUuW8cWVtmHEqI13-20" value="$$000\cdots 000$$" style="rounded=0;whiteSpace=wrap;html=1;fillColor=#dae8fc;strokeColor=#6c8ebf;" parent="1" vertex="1">
          <mxGeometry x="520" y="40" width="120" height="20" as="geometry" />
        </mxCell>
        <mxCell id="uQrCQO1sHS2_ZI6FuB6k-9" value="" style="rounded=0;whiteSpace=wrap;html=1;" vertex="1" parent="1">
          <mxGeometry x="40" y="80" width="120" height="20" as="geometry" />
        </mxCell>
        <mxCell id="uQrCQO1sHS2_ZI6FuB6k-10" value="" style="rounded=0;whiteSpace=wrap;html=1;" vertex="1" parent="1">
          <mxGeometry x="160" y="80" width="120" height="20" as="geometry" />
        </mxCell>
        <mxCell id="uQrCQO1sHS2_ZI6FuB6k-11" value="" style="rounded=0;whiteSpace=wrap;html=1;" vertex="1" parent="1">
          <mxGeometry x="280" y="80" width="120" height="20" as="geometry" />
        </mxCell>
        <mxCell id="uQrCQO1sHS2_ZI6FuB6k-12" value="$$000\cdots 000$$" style="rounded=0;whiteSpace=wrap;html=1;fillColor=#dae8fc;strokeColor=#6c8ebf;" vertex="1" parent="1">
          <mxGeometry x="400" y="80" width="120" height="20" as="geometry" />
        </mxCell>
        <mxCell id="uQrCQO1sHS2_ZI6FuB6k-13" value="$$000\cdots 000$$" style="rounded=0;whiteSpace=wrap;html=1;fillColor=#dae8fc;strokeColor=#6c8ebf;" vertex="1" parent="1">
          <mxGeometry x="520" y="80" width="120" height="20" as="geometry" />
        </mxCell>
        <mxCell id="uQrCQO1sHS2_ZI6FuB6k-14" value="" style="rounded=0;whiteSpace=wrap;html=1;" vertex="1" parent="1">
          <mxGeometry x="40" y="120" width="120" height="20" as="geometry" />
        </mxCell>
        <mxCell id="uQrCQO1sHS2_ZI6FuB6k-15" value="" style="rounded=0;whiteSpace=wrap;html=1;" vertex="1" parent="1">
          <mxGeometry x="160" y="120" width="120" height="20" as="geometry" />
        </mxCell>
        <mxCell id="uQrCQO1sHS2_ZI6FuB6k-16" value="" style="rounded=0;whiteSpace=wrap;html=1;" vertex="1" parent="1">
          <mxGeometry x="280" y="120" width="120" height="20" as="geometry" />
        </mxCell>
        <mxCell id="uQrCQO1sHS2_ZI6FuB6k-17" value="$$000\cdots 000$$" style="rounded=0;whiteSpace=wrap;html=1;fillColor=#dae8fc;strokeColor=#6c8ebf;" vertex="1" parent="1">
          <mxGeometry x="400" y="120" width="120" height="20" as="geometry" />
        </mxCell>
        <mxCell id="uQrCQO1sHS2_ZI6FuB6k-18" value="$$000\cdots 000$$" style="rounded=0;whiteSpace=wrap;html=1;fillColor=#dae8fc;strokeColor=#6c8ebf;" vertex="1" parent="1">
          <mxGeometry x="520" y="120" width="120" height="20" as="geometry" />
        </mxCell>
        <mxCell id="uQrCQO1sHS2_ZI6FuB6k-19" value="" style="rounded=0;whiteSpace=wrap;html=1;" vertex="1" parent="1">
          <mxGeometry x="40" y="160" width="120" height="20" as="geometry" />
        </mxCell>
        <mxCell id="uQrCQO1sHS2_ZI6FuB6k-20" value="" style="rounded=0;whiteSpace=wrap;html=1;" vertex="1" parent="1">
          <mxGeometry x="160" y="160" width="120" height="20" as="geometry" />
        </mxCell>
        <mxCell id="uQrCQO1sHS2_ZI6FuB6k-21" value="" style="rounded=0;whiteSpace=wrap;html=1;" vertex="1" parent="1">
          <mxGeometry x="280" y="160" width="120" height="20" as="geometry" />
        </mxCell>
        <mxCell id="uQrCQO1sHS2_ZI6FuB6k-22" value="$$000\cdots 000$$" style="rounded=0;whiteSpace=wrap;html=1;fillColor=#dae8fc;strokeColor=#6c8ebf;" vertex="1" parent="1">
          <mxGeometry x="400" y="160" width="120" height="20" as="geometry" />
        </mxCell>
        <mxCell id="uQrCQO1sHS2_ZI6FuB6k-23" value="$$000\cdots 000$$" style="rounded=0;whiteSpace=wrap;html=1;fillColor=#dae8fc;strokeColor=#6c8ebf;" vertex="1" parent="1">
          <mxGeometry x="520" y="160" width="120" height="20" as="geometry" />
        </mxCell>
        <mxCell id="uQrCQO1sHS2_ZI6FuB6k-24" value="" style="shape=flexArrow;endArrow=classic;html=1;rounded=0;fillColor=#f5f5f5;strokeColor=#666666;" edge="1" parent="1">
          <mxGeometry width="50" height="50" relative="1" as="geometry">
            <mxPoint x="350" y="200" as="sourcePoint" />
            <mxPoint x="350" y="250" as="targetPoint" />
          </mxGeometry>
        </mxCell>
        <mxCell id="uQrCQO1sHS2_ZI6FuB6k-25" value="" style="rounded=0;whiteSpace=wrap;html=1;" vertex="1" parent="1">
          <mxGeometry x="50" y="270" width="120" height="20" as="geometry" />
        </mxCell>
        <mxCell id="uQrCQO1sHS2_ZI6FuB6k-26" value="" style="rounded=0;whiteSpace=wrap;html=1;" vertex="1" parent="1">
          <mxGeometry x="170" y="270" width="120" height="20" as="geometry" />
        </mxCell>
        <mxCell id="uQrCQO1sHS2_ZI6FuB6k-28" value="$$000\cdots 000$$" style="rounded=0;whiteSpace=wrap;html=1;fillColor=#dae8fc;strokeColor=#6c8ebf;" vertex="1" parent="1">
          <mxGeometry x="410" y="270" width="120" height="20" as="geometry" />
        </mxCell>
        <mxCell id="uQrCQO1sHS2_ZI6FuB6k-29" value="$$000\cdots 000$$" style="rounded=0;whiteSpace=wrap;html=1;fillColor=#dae8fc;strokeColor=#6c8ebf;" vertex="1" parent="1">
          <mxGeometry x="530" y="270" width="120" height="20" as="geometry" />
        </mxCell>
        <mxCell id="uQrCQO1sHS2_ZI6FuB6k-30" value="" style="rounded=0;whiteSpace=wrap;html=1;" vertex="1" parent="1">
          <mxGeometry x="50" y="310" width="120" height="20" as="geometry" />
        </mxCell>
        <mxCell id="uQrCQO1sHS2_ZI6FuB6k-31" value="" style="rounded=0;whiteSpace=wrap;html=1;" vertex="1" parent="1">
          <mxGeometry x="170" y="310" width="120" height="20" as="geometry" />
        </mxCell>
        <mxCell id="uQrCQO1sHS2_ZI6FuB6k-33" value="$$000\cdots 000$$" style="rounded=0;whiteSpace=wrap;html=1;fillColor=#dae8fc;strokeColor=#6c8ebf;" vertex="1" parent="1">
          <mxGeometry x="410" y="310" width="120" height="20" as="geometry" />
        </mxCell>
        <mxCell id="uQrCQO1sHS2_ZI6FuB6k-34" value="$$000\cdots 000$$" style="rounded=0;whiteSpace=wrap;html=1;fillColor=#dae8fc;strokeColor=#6c8ebf;" vertex="1" parent="1">
          <mxGeometry x="530" y="310" width="120" height="20" as="geometry" />
        </mxCell>
        <mxCell id="uQrCQO1sHS2_ZI6FuB6k-35" value="" style="rounded=0;whiteSpace=wrap;html=1;" vertex="1" parent="1">
          <mxGeometry x="50" y="350" width="120" height="20" as="geometry" />
        </mxCell>
        <mxCell id="uQrCQO1sHS2_ZI6FuB6k-36" value="" style="rounded=0;whiteSpace=wrap;html=1;" vertex="1" parent="1">
          <mxGeometry x="170" y="350" width="120" height="20" as="geometry" />
        </mxCell>
        <mxCell id="uQrCQO1sHS2_ZI6FuB6k-38" value="$$000\cdots 000$$" style="rounded=0;whiteSpace=wrap;html=1;fillColor=#dae8fc;strokeColor=#6c8ebf;" vertex="1" parent="1">
          <mxGeometry x="410" y="350" width="120" height="20" as="geometry" />
        </mxCell>
        <mxCell id="uQrCQO1sHS2_ZI6FuB6k-39" value="$$000\cdots 000$$" style="rounded=0;whiteSpace=wrap;html=1;fillColor=#dae8fc;strokeColor=#6c8ebf;" vertex="1" parent="1">
          <mxGeometry x="530" y="350" width="120" height="20" as="geometry" />
        </mxCell>
        <mxCell id="uQrCQO1sHS2_ZI6FuB6k-45" value="$$000\cdots 000$$" style="rounded=0;whiteSpace=wrap;html=1;fillColor=#dae8fc;strokeColor=#6c8ebf;" vertex="1" parent="1">
          <mxGeometry x="290" y="270" width="120" height="20" as="geometry" />
        </mxCell>
        <mxCell id="uQrCQO1sHS2_ZI6FuB6k-46" value="$$000\cdots 000$$" style="rounded=0;whiteSpace=wrap;html=1;fillColor=#dae8fc;strokeColor=#6c8ebf;" vertex="1" parent="1">
          <mxGeometry x="290" y="310" width="120" height="20" as="geometry" />
        </mxCell>
        <mxCell id="uQrCQO1sHS2_ZI6FuB6k-47" value="$$000\cdots 000$$" style="rounded=0;whiteSpace=wrap;html=1;fillColor=#dae8fc;strokeColor=#6c8ebf;" vertex="1" parent="1">
          <mxGeometry x="290" y="350" width="120" height="20" as="geometry" />
        </mxCell>
      </root>
    </mxGraphModel>
  </diagram>
</mxfile>
